<svg id="visual" viewBox="0 0 900 675" width="900" height="675" xmlns="http://www.w3.org/2000/svg" xmlns:xlink="http://www.w3.org/1999/xlink" version="1.1"><rect x="0" y="0" width="900" height="675" fill="#001220"></rect><defs><linearGradient id="grad1_0" x1="25%" y1="0%" x2="100%" y2="100%"><stop offset="23.333333333333336%" stop-color="#001220" stop-opacity="1"></stop><stop offset="76.66666666666666%" stop-color="#001220" stop-opacity="1"></stop></linearGradient></defs><defs><linearGradient id="grad2_0" x1="0%" y1="0%" x2="75%" y2="100%"><stop offset="23.333333333333336%" stop-color="#001220" stop-opacity="1"></stop><stop offset="76.66666666666666%" stop-color="#001220" stop-opacity="1"></stop></linearGradient></defs><g transform="translate(900, 0)"><path d="M0 506.3C-72.2 505.4 -144.4 504.6 -193.7 467.7C-243 430.9 -269.5 358 -306.2 306.2C-342.9 254.4 -389.9 223.6 -425 176C-460 128.5 -483.1 64.3 -506.2 0L0 0Z" fill="#FCAF3C"></path></g><g transform="translate(0, 675)"><path d="M0 -506.2C50.1 -461.9 100.2 -417.5 165.7 -400C231.2 -382.6 312.2 -392 358 -358C403.8 -323.9 414.4 -246.4 433.3 -179.5C452.2 -112.6 479.2 -56.3 506.3 0L0 0Z" fill="#FCAF3C"></path></g></svg>