<svg id="visual" viewBox="0 0 900 600" width="900" height="600" xmlns="http://www.w3.org/2000/svg" xmlns:xlink="http://www.w3.org/1999/xlink" version="1.1"><rect x="0" y="0" width="900" height="600" fill="#001220"></rect><defs><linearGradient id="grad1_0" x1="33.3%" y1="0%" x2="100%" y2="100%"><stop offset="20%" stop-color="#001220" stop-opacity="1"></stop><stop offset="80%" stop-color="#001220" stop-opacity="1"></stop></linearGradient></defs><defs><linearGradient id="grad2_0" x1="0%" y1="0%" x2="66.7%" y2="100%"><stop offset="20%" stop-color="#001220" stop-opacity="1"></stop><stop offset="80%" stop-color="#001220" stop-opacity="1"></stop></linearGradient></defs><g transform="translate(900, 0)"><path d="M0 486.7C-66.1 481.8 -132.2 476.9 -186.3 449.7C-240.3 422.5 -282.2 373.1 -327.4 327.4C-372.6 281.6 -421 239.6 -448.1 185.6C-475.2 131.6 -481 65.8 -486.7 0L0 0Z" fill="#FBAE3C"></path></g><g transform="translate(0, 600)"><path d="M0 -486.7C66.5 -481.1 133 -475.4 184.8 -446.2C236.6 -417 273.7 -364.3 319.6 -319.6C365.5 -274.9 420.4 -238.2 449.7 -186.3C479 -134.3 482.9 -67.2 486.7 0L0 0Z" fill="#FBAE3C"></path></g></svg>