<svg id="visual" viewBox="0 0 900 600" width="900" height="600" xmlns="http://www.w3.org/2000/svg" xmlns:xlink="http://www.w3.org/1999/xlink" version="1.1"><g stroke-width="1" stroke-linejoin="bevel"><path d="M460 276L428 193L381 308Z" fill="#19435d" stroke="#19435d"></path><path d="M305 239L338 306L381 308Z" fill="#0c2435" stroke="#0c2435"></path><path d="M428 193L305 239L381 308Z" fill="#112e42" stroke="#112e42"></path><path d="M460 276L478 169L428 193Z" fill="#112e42" stroke="#112e42"></path><path d="M428 193L287 131L305 239Z" fill="#112e42" stroke="#112e42"></path><path d="M381 308L511 361L460 276Z" fill="#081a28" stroke="#081a28"></path><path d="M460 276L563 262L478 169Z" fill="#081a28" stroke="#081a28"></path><path d="M415 432L511 361L381 308Z" fill="#205a7a" stroke="#205a7a"></path><path d="M511 361L563 262L460 276Z" fill="#19435d" stroke="#19435d"></path><path d="M478 169L368 93L428 193Z" fill="#246688" stroke="#246688"></path><path d="M368 93L287 131L428 193Z" fill="#15384f" stroke="#15384f"></path><path d="M338 306L415 432L381 308Z" fill="#15384f" stroke="#15384f"></path><path d="M201 181L223 281L305 239Z" fill="#00101c" stroke="#00101c"></path><path d="M305 239L223 281L338 306Z" fill="#205a7a" stroke="#205a7a"></path><path d="M338 306L273 408L415 432Z" fill="#205a7a" stroke="#205a7a"></path><path d="M624 194L533 102L478 169Z" fill="#205a7a" stroke="#205a7a"></path><path d="M478 169L533 102L368 93Z" fill="#0c2435" stroke="#0c2435"></path><path d="M223 281L273 408L338 306Z" fill="#277297" stroke="#277297"></path><path d="M287 131L201 181L305 239Z" fill="#081a28" stroke="#081a28"></path><path d="M701 313L624 194L563 262Z" fill="#205a7a" stroke="#205a7a"></path><path d="M563 262L624 194L478 169Z" fill="#112e42" stroke="#112e42"></path><path d="M118 376L199 363L87 285Z" fill="#246688" stroke="#246688"></path><path d="M223 281L199 363L273 408Z" fill="#081a28" stroke="#081a28"></path><path d="M273 408L379 490L415 432Z" fill="#00101c" stroke="#00101c"></path><path d="M579 479L618 370L511 361Z" fill="#081a28" stroke="#081a28"></path><path d="M292 533L379 490L273 408Z" fill="#246688" stroke="#246688"></path><path d="M467 523L511 361L415 432Z" fill="#081a28" stroke="#081a28"></path><path d="M511 361L618 370L563 262Z" fill="#0c2435" stroke="#0c2435"></path><path d="M368 93L316 0L287 131Z" fill="#0c2435" stroke="#0c2435"></path><path d="M287 131L162 78L201 181Z" fill="#1d4e6b" stroke="#1d4e6b"></path><path d="M489 0L366 0L368 93Z" fill="#246688" stroke="#246688"></path><path d="M609 0L489 0L533 102Z" fill="#205a7a" stroke="#205a7a"></path><path d="M533 102L489 0L368 93Z" fill="#205a7a" stroke="#205a7a"></path><path d="M366 0L316 0L368 93Z" fill="#0c2435" stroke="#0c2435"></path><path d="M624 194L617 89L533 102Z" fill="#205a7a" stroke="#205a7a"></path><path d="M379 490L467 523L415 432Z" fill="#15384f" stroke="#15384f"></path><path d="M467 523L579 479L511 361Z" fill="#297ea6" stroke="#297ea6"></path><path d="M235 0L162 78L287 131Z" fill="#297ea6" stroke="#297ea6"></path><path d="M87 285L199 363L223 281Z" fill="#297ea6" stroke="#297ea6"></path><path d="M316 0L235 0L287 131Z" fill="#15384f" stroke="#15384f"></path><path d="M618 370L701 313L563 262Z" fill="#15384f" stroke="#15384f"></path><path d="M624 194L734 130L617 89Z" fill="#081a28" stroke="#081a28"></path><path d="M673 394L701 313L618 370Z" fill="#297ea6" stroke="#297ea6"></path><path d="M166 536L292 533L273 408Z" fill="#19435d" stroke="#19435d"></path><path d="M379 490L392 600L467 523Z" fill="#0c2435" stroke="#0c2435"></path><path d="M579 479L673 394L618 370Z" fill="#112e42" stroke="#112e42"></path><path d="M87 285L223 281L201 181Z" fill="#1d4e6b" stroke="#1d4e6b"></path><path d="M199 363L166 536L273 408Z" fill="#205a7a" stroke="#205a7a"></path><path d="M92 105L91 195L201 181Z" fill="#081a28" stroke="#081a28"></path><path d="M91 195L87 285L201 181Z" fill="#297ea6" stroke="#297ea6"></path><path d="M662 0L609 0L617 89Z" fill="#00101c" stroke="#00101c"></path><path d="M617 89L609 0L533 102Z" fill="#297ea6" stroke="#297ea6"></path><path d="M701 313L735 205L624 194Z" fill="#246688" stroke="#246688"></path><path d="M162 78L92 105L201 181Z" fill="#246688" stroke="#246688"></path><path d="M91 195L0 223L87 285Z" fill="#112e42" stroke="#112e42"></path><path d="M86 0L92 105L162 78Z" fill="#277297" stroke="#277297"></path><path d="M292 533L392 600L379 490Z" fill="#00101c" stroke="#00101c"></path><path d="M467 523L583 600L579 479Z" fill="#1d4e6b" stroke="#1d4e6b"></path><path d="M735 205L734 130L624 194Z" fill="#0c2435" stroke="#0c2435"></path><path d="M392 600L483 600L467 523Z" fill="#112e42" stroke="#112e42"></path><path d="M778 397L701 313L673 394Z" fill="#205a7a" stroke="#205a7a"></path><path d="M734 130L662 0L617 89Z" fill="#205a7a" stroke="#205a7a"></path><path d="M193 600L302 600L292 533Z" fill="#081a28" stroke="#081a28"></path><path d="M292 533L302 600L392 600Z" fill="#297ea6" stroke="#297ea6"></path><path d="M93 466L166 536L199 363Z" fill="#1d4e6b" stroke="#1d4e6b"></path><path d="M93 466L199 363L118 376Z" fill="#112e42" stroke="#112e42"></path><path d="M0 385L93 466L118 376Z" fill="#1d4e6b" stroke="#1d4e6b"></path><path d="M701 313L787 323L735 205Z" fill="#19435d" stroke="#19435d"></path><path d="M735 205L796 169L734 130Z" fill="#277297" stroke="#277297"></path><path d="M778 397L787 323L701 313Z" fill="#0c2435" stroke="#0c2435"></path><path d="M724 521L673 394L579 479Z" fill="#297ea6" stroke="#297ea6"></path><path d="M483 600L583 600L467 523Z" fill="#1d4e6b" stroke="#1d4e6b"></path><path d="M787 323L796 169L735 205Z" fill="#15384f" stroke="#15384f"></path><path d="M734 130L765 0L662 0Z" fill="#205a7a" stroke="#205a7a"></path><path d="M762 473L778 397L673 394Z" fill="#246688" stroke="#246688"></path><path d="M796 169L783 111L734 130Z" fill="#15384f" stroke="#15384f"></path><path d="M235 0L86 0L162 78Z" fill="#246688" stroke="#246688"></path><path d="M0 138L0 223L91 195Z" fill="#19435d" stroke="#19435d"></path><path d="M0 138L91 195L92 105Z" fill="#0c2435" stroke="#0c2435"></path><path d="M87 285L0 315L118 376Z" fill="#081a28" stroke="#081a28"></path><path d="M110 600L193 600L166 536Z" fill="#246688" stroke="#246688"></path><path d="M166 536L193 600L292 533Z" fill="#297ea6" stroke="#297ea6"></path><path d="M0 223L0 315L87 285Z" fill="#15384f" stroke="#15384f"></path><path d="M0 0L0 138L92 105Z" fill="#15384f" stroke="#15384f"></path><path d="M583 600L724 521L579 479Z" fill="#246688" stroke="#246688"></path><path d="M724 521L762 473L673 394Z" fill="#112e42" stroke="#112e42"></path><path d="M0 315L0 385L118 376Z" fill="#081a28" stroke="#081a28"></path><path d="M93 466L110 600L166 536Z" fill="#19435d" stroke="#19435d"></path><path d="M900 0L765 0L783 111Z" fill="#112e42" stroke="#112e42"></path><path d="M783 111L765 0L734 130Z" fill="#00101c" stroke="#00101c"></path><path d="M0 600L110 600L93 466Z" fill="#277297" stroke="#277297"></path><path d="M0 385L0 467L93 466Z" fill="#112e42" stroke="#112e42"></path><path d="M583 600L721 600L724 521Z" fill="#297ea6" stroke="#297ea6"></path><path d="M724 521L777 600L762 473Z" fill="#112e42" stroke="#112e42"></path><path d="M86 0L0 0L92 105Z" fill="#277297" stroke="#277297"></path><path d="M787 323L900 230L796 169Z" fill="#00101c" stroke="#00101c"></path><path d="M796 169L900 93L783 111Z" fill="#277297" stroke="#277297"></path><path d="M900 278L900 230L787 323Z" fill="#0c2435" stroke="#0c2435"></path><path d="M900 278L787 323L900 392Z" fill="#112e42" stroke="#112e42"></path><path d="M787 323L778 397L900 392Z" fill="#15384f" stroke="#15384f"></path><path d="M900 392L778 397L762 473Z" fill="#246688" stroke="#246688"></path><path d="M721 600L777 600L724 521Z" fill="#15384f" stroke="#15384f"></path><path d="M900 538L900 392L762 473Z" fill="#246688" stroke="#246688"></path><path d="M900 230L900 93L796 169Z" fill="#277297" stroke="#277297"></path><path d="M0 467L0 600L93 466Z" fill="#246688" stroke="#246688"></path><path d="M900 93L900 0L783 111Z" fill="#205a7a" stroke="#205a7a"></path><path d="M777 600L900 538L762 473Z" fill="#1d4e6b" stroke="#1d4e6b"></path><path d="M777 600L900 600L900 538Z" fill="#19435d" stroke="#19435d"></path></g></svg>