<svg id="visual" viewBox="0 0 900 675" width="900" height="675" xmlns="http://www.w3.org/2000/svg" xmlns:xlink="http://www.w3.org/1999/xlink" version="1.1"><rect x="0" y="0" width="900" height="675" fill="#001122"></rect><defs><linearGradient id="grad1_0" x1="25%" y1="100%" x2="100%" y2="0%"><stop offset="23.333333333333336%" stop-color="#001122" stop-opacity="1"></stop><stop offset="76.66666666666666%" stop-color="#001122" stop-opacity="1"></stop></linearGradient></defs><defs><linearGradient id="grad2_0" x1="0%" y1="100%" x2="75%" y2="0%"><stop offset="23.333333333333336%" stop-color="#001122" stop-opacity="1"></stop><stop offset="76.66666666666666%" stop-color="#001122" stop-opacity="1"></stop></linearGradient></defs><g transform="translate(900, 675)"><path d="M-506.2 0C-506.4 -72.8 -506.6 -145.7 -467.7 -193.7C-428.8 -241.8 -350.8 -265.1 -297 -297C-243.1 -328.9 -213.5 -369.3 -168 -405.6C-122.5 -441.9 -61.3 -474.1 0 -506.2L0 0Z" fill="#FBAE3C"></path></g><g transform="translate(0, 0)"><path d="M506.3 0C454.8 46.9 403.4 93.8 387.1 160.3C370.8 226.9 389.7 313.1 358 358C326.2 402.8 243.8 406.2 175.7 424.1C107.5 441.9 53.8 474.1 0 506.3L0 0Z" fill="#FBAE3C"></path></g></svg>