<svg id="visual" viewBox="0 0 900 600" width="900" height="600" xmlns="http://www.w3.org/2000/svg" xmlns:xlink="http://www.w3.org/1999/xlink" version="1.1"><rect x="0" y="0" width="900" height="600" fill="#001220"></rect><defs><linearGradient id="grad1_0" x1="33.3%" y1="0%" x2="100%" y2="100%"><stop offset="20%" stop-color="#001220" stop-opacity="1"></stop><stop offset="80%" stop-color="#001220" stop-opacity="1"></stop></linearGradient></defs><defs><linearGradient id="grad2_0" x1="0%" y1="0%" x2="66.7%" y2="100%"><stop offset="20%" stop-color="#001220" stop-opacity="1"></stop><stop offset="80%" stop-color="#001220" stop-opacity="1"></stop></linearGradient></defs><g transform="translate(900, 0)"><path d="M0 486.7C-68.9 486.2 -137.8 485.6 -186.3 449.7C-234.7 413.8 -262.7 342.7 -289.2 289.2C-315.7 235.7 -340.6 199.9 -373.2 154.6C-405.9 109.3 -446.3 54.7 -486.7 0L0 0Z" fill="#6600FF"></path></g><g transform="translate(0, 600)"><path d="M0 -486.7C58.9 -469.3 117.9 -451.9 178.7 -431.5C239.5 -411 302.2 -387.5 344.2 -344.2C386.2 -300.9 407.4 -237.8 427.8 -177.2C448.1 -116.5 467.4 -58.3 486.7 0L0 0Z" fill="#6600FF"></path></g></svg>